<svg xmlns="http://www.w3.org/2000/svg" width="40" height="40" fill="none" viewBox="0 0 40 40"><path fill="#fff" d="M21.6667 35H15V15H21.6667V18.3333C22.3685 17.4404 23.2592 16.7139 24.275 16.2059C25.2907 15.6979 26.4063 15.421 27.5417 15.395C29.5273 15.406 31.4276 16.204 32.8257 17.6141C34.2238 19.0241 35.0058 20.931 35 22.9167V35H28.3333V23.75C28.2044 22.8493 27.7544 22.0255 27.0663 21.4301C26.3782 20.8348 25.4982 20.508 24.5883 20.51C24.1811 20.5229 23.7807 20.6179 23.411 20.7893C23.0414 20.9608 22.7103 21.2051 22.4374 21.5077C22.1645 21.8103 21.9556 22.1649 21.8232 22.5502C21.6907 22.9355 21.6375 23.3436 21.6667 23.75V35ZM11.6667 35H5V15H11.6667V35ZM8.33333 11.6667C7.44928 11.6667 6.60143 11.3155 5.97631 10.6904C5.35119 10.0652 5 9.21739 5 8.33333C5 7.44928 5.35119 6.60143 5.97631 5.97631C6.60143 5.35119 7.44928 5 8.33333 5C9.21739 5 10.0652 5.35119 10.6904 5.97631C11.3155 6.60143 11.6667 7.44928 11.6667 8.33333C11.6667 9.21739 11.3155 10.0652 10.6904 10.6904C10.0652 11.3155 9.21739 11.6667 8.33333 11.6667Z"/></svg>